PathFileType	4	(X/Y/Z)	/Users/niels/Desktop/University/Third Semester/Perception and Action/Exam/Gymnastics Motion Tracking/Code for Gym Tracking/Analyzed Data/Webcam_Backflip/id7_1_baseline_Sports2D/id7_1_baseline_Sports2D_px_person00.trc
DataRate	CameraRate	NumFrames	NumMarkers	Units	OrigDataRate	OrigDataStartFrame	OrigNumFrames
29.708737864077673	29.708737864077673	8	22	m	29.708737864077673	0	103
Frame#	Time	Hip			RHip			RKnee			RAnkle			RBigToe			RSmallToe			RHeel			LHip			LKnee			LAnkle			LBigToe			LSmallToe			LHeel			Neck			Head			Nose			RShoulder			RElbow			RWrist			LShoulder			LElbow			LWrist		
		X1	Y1	Z1	X2	Y2	Z2	X3	Y3	Z3	X4	Y4	Z4	X5	Y5	Z5	X6	Y6	Z6	X7	Y7	Z7	X8	Y8	Z8	X9	Y9	Z9	X10	Y10	Z10	X11	Y11	Z11	X12	Y12	Z12	X13	Y13	Z13	X14	Y14	Z14	X15	Y15	Z15	X16	Y16	Z16	X17	Y17	Z17	X18	Y18	Z18	X19	Y19	Z19	X20	Y20	Z20	X21	Y21	Z21	X22	Y22	Z22
0	0.0	0.8461671606263166	-0.4690162812985504	0.0	0.8333718526479524	-0.46900962339839525	0.0	0.8486916110708237	-0.7196938228408443	0.0	0.8256748126525821	-0.9626613774782872	0.0	0.9330985802578824	-1.011297235099608	0.0	0.8998311611856149	-1.0240811333777997	0.0	0.7975143909390772	-0.9984597479511947	0.0	0.8743067851156725	-0.4690244718165594	0.0	0.9280012784484294	-0.6992302072287483	0.0	0.8768094365021071	-0.9013194248582909	0.0	0.9688927323173959	-0.9396928892693882	0.0	0.9638050799098596	-0.9268867603255845	0.0	0.8614527682985711	-0.9320193682939328	0.0	0.8768521602446726	-0.10835255897015238	0.0	0.9279901683604783	0.0399987509909992	0.0	0.9407712920908797	-0.02905457855852974	0.0	0.8410184107951821	-0.16459586415188807	0.0	0.9305035787350913	-0.3180353730209298	0.0	1.1172063961996372	-0.33848604105556473	0.0	0.8947989110101218	-0.16206363856498077	0.0	0.9101028515651374	-0.33085932810680674	0.0	0.9968387078203499	-0.4305974466748851	0.0
1	0.03366013071895425	0.8474612818862529	-0.47061439734727795	0.0	0.8338981518332925	-0.4701135741027805	0.0	0.8488042618993916	-0.721563472191871	0.0	0.8266403461278021	-0.9637766842308765	0.0	0.9325046836178766	-1.0103487520472194	0.0	0.8992763224203042	-1.0236679985557897	0.0	0.7987713729176539	-0.9976969522394649	0.0	0.8755828219178167	-0.47009019639987565	0.0	0.922608252447637	-0.7006311396260613	0.0	0.8763049080738277	-0.9041570215377084	0.0	0.9692791168237523	-0.941244196221316	0.0	0.9643549950635057	-0.9293848372435876	0.0	0.8615842786557967	-0.9339966415467129	0.0	0.8792871477244567	-0.10873717152850068	0.0	0.9284538501189794	0.038748675635257114	0.0	0.9411722925413362	-0.030299256886684257	0.0	0.8402921866123968	-0.16607135415058866	0.0	0.9225322771014799	-0.3305144062849531	0.0	1.1012522482442793	-0.36930360240997007	0.0	0.8965727565377324	-0.162859809891647	0.0	0.9130528357462951	-0.3312951053500818	0.0	0.9933967818304945	-0.4355720317138629	0.0
2	0.0673202614379085	0.8491162639402616	-0.4726825429235425	0.0	0.8346049054385288	-0.47153653303300164	0.0	0.8490508051190472	-0.7232694518921611	0.0	0.8275531970730735	-0.9646544368910845	0.0	0.9322029015470432	-1.0094528421220728	0.0	0.8991313816741369	-1.023036270054353	0.0	0.7998228330081464	-0.9968482048135101	0.0	0.876984820175018	-0.47165698062382	0.0	0.917227724599568	-0.7025196958553888	0.0	0.8753248360032669	-0.9070878826863055	0.0	0.9693365198964553	-0.9431227258169137	0.0	0.964334188427082	-0.9318994451147485	0.0	0.8612612818384038	-0.935973828374644	0.0	0.8816020242887813	-0.10930729906019318	0.0	0.9289746258899473	0.03747303203768604	0.0	0.9418281368254124	-0.03168399979935669	0.0	0.8392855581916594	-0.1676854566081221	0.0	0.9139832358530908	-0.3422675209452669	0.0	1.0821044244470348	-0.4007556727889352	0.0	0.8984376903876824	-0.16365509080339283	0.0	0.9159665074419252	-0.33210402071658673	0.0	0.989654981609364	-0.44099581325500553	0.0
3	0.10098039215686275	0.8514219125171131	-0.47540757879654616	0.0	0.8357536215352527	-0.4734132019818935	0.0	0.8496144700722067	-0.7246464093321477	0.0	0.8283598353548874	-0.9652754440825813	0.0	0.9324326970827578	-1.0085590210512525	0.0	0.8999437675098919	-1.0220632274603938	0.0	0.8005595521879174	-0.9960646817231649	0.0	0.8786048610440629	-0.4739124400040073	0.0	0.9119229363987258	-0.7051164239419632	0.0	0.8736631797357229	-0.9100024796960093	0.0	0.9688457605598001	-0.9453522242511656	0.0	0.9632957055570937	-0.9343056408539169	0.0	0.860209879886466	-0.9377771569835762	0.0	0.8836537789685743	-0.11016232404127466	0.0	0.9296909518962082	0.036205180594556755	0.0	0.9429368959542022	-0.03339692406012432	0.0	0.8379867707524256	-0.16935405327377415	0.0	0.9040467521115885	-0.35236993914957876	0.0	1.0571225559461257	-0.432561640334357	0.0	0.9003366559838847	-0.1644429010063707	0.0	0.918346190614157	-0.3334668640272173	0.0	0.9847661940761883	-0.44747943663624157	0.0
4	0.134640522875817	0.8546669335655618	-0.47864632207912683	0.0	0.8377560089520509	-0.4757399989473315	0.0	0.8506898075514643	-0.7256645226671172	0.0	0.8290101201604225	-0.9657760447580352	0.0	0.9333740058210619	-1.00769160375187	0.0	0.9021563285032009	-1.0208744251214297	0.0	0.8009887657382853	-0.9956451686418835	0.0	0.8806786138965496	-0.47669477694118906	0.0	0.9068675401225681	-0.7083395391690984	0.0	0.8715442820729187	-0.9125844712944876	0.0	0.9677603258704932	-0.9475964769604562	0.0	0.9610991075933569	-0.9363047169865405	0.0	0.8585039759734616	-0.9390515995613243	0.0	0.8853200797362536	-0.11126431063737217	0.0	0.9307447504412802	0.035016167950597865	0.0	0.944526497105231	-0.03560551354738314	0.0	0.8367321974560676	-0.17079294856373853	0.0	0.8918781453613123	-0.3598929629931946	0.0	1.0250360661375013	-0.4632005749469807	0.0	0.9021152074668615	-0.16525286983205492	0.0	0.9192919803434103	-0.3352952381786674	0.0	0.9776281065384401	-0.45541129835284044	0.0
5	0.16830065359477123	0.8591234130763169	-0.4820588686840768	0.0	0.8410669745483202	-0.47847605912482993	0.0	0.8524438031451784	-0.7264911984251169	0.0	0.8294784776828369	-0.96624316059623	0.0	0.9349837656793487	-1.0070850012557213	0.0	0.9055587464656322	-1.01984507921605	0.0	0.8012017834197838	-0.9957023469227111	0.0	0.8835301550546539	-0.4796538616514236	0.0	0.9023658771798673	-0.7118221574562239	0.0	0.8694978539234409	-0.9144661352949063	0.0	0.9662525330166135	-0.949358294247795	0.0	0.9580606453494834	-0.9375870244939712	0.0	0.8565130469069993	-0.9394790935649165	0.0	0.88662633618915	-0.11252406475299172	0.0	0.9322329708686736	0.03396539169204925	0.0	0.9464620772585295	-0.03841761920131863	0.0	0.8360584031869317	-0.17177363779136776	0.0	0.8771003385606925	-0.364338193676249	0.0	0.9861137136458411	-0.4901940679690369	0.0	0.9035396449791516	-0.16613827395515277	0.0	0.9176163432980332	-0.33729568075475513	0.0	0.9673779567401823	-0.46434827593229244	0.0
6	0.2019607843137255	0.8648013390126877	-0.4851205288179673	0.0	0.8458861780581881	-0.48132222181634415	0.0	0.855021100772498	-0.7272307033871137	0.0	0.8298019630520352	-0.9666099580208368	0.0	0.9368555030870587	-1.0069454960423698	0.0	0.9092445627930547	-1.0192948819991896	0.0	0.8013527343041313	-0.9959963188998314	0.0	0.8871644771696419	-0.4822595759841064	0.0	0.8987488760222737	-0.714872433892796	0.0	0.8679948118649476	-0.9154114338451493	0.0	0.964690297019834	-0.9502943876056548	0.0	0.9548301481519467	-0.9380592833480307	0.0	0.8546187085872761	-0.9390218174609025	0.0	0.8877477874042562	-0.11392624587645736	0.0	0.9343174628562567	0.0330111169284383	0.0	0.9485960857539475	-0.04189774089616803	0.0	0.8364348574384667	-0.17226466060351658	0.0	0.8602794873266838	-0.36588146013190476	0.0	0.9419628243771464	-0.5110317527856916	0.0	0.904275916063081	-0.16706418189678693	0.0	0.9121125931464855	-0.33903967164542825	0.0	0.9535697450679773	-0.47293991951968817	0.0
7	0.23562091503267973	0.871149936646259	-0.4870869947799871	0.0	0.8519323105629218	-0.48347505997307116	0.0	0.8585693766355763	-0.7276332860601106	0.0	0.8300883135186601	-0.9667187256365891	0.0	0.9384009055191213	-1.0071979523096666	0.0	0.9122840581658268	-1.0192706855893365	0.0	0.8016739882250725	-0.9961690073795878	0.0	0.8910256916467069	-0.48376278876457485	0.0	0.8961577168222221	-0.7166036355427793	0.0	0.8671818426289551	-0.91537172371556	0.0	0.9634804580801459	-0.950357100814898	0.0	0.9520561100699013	-0.937879761844183	0.0	0.853004159755443	-0.93790559721733	0.0	0.8888839726627377	-0.11550202906380626	0.0	0.9372651988982336	0.031972953317332284	0.0	0.9508690801725823	-0.04598700253797261	0.0	0.8380398228928313	-0.17233991917919508	0.0	0.8427228902317037	-0.3650978106981309	0.0	0.895199956088269	-0.5240927369534609	0.0	0.9040136322593885	-0.16786152790178946	0.0	0.9019636140829165	-0.3400892522371288	0.0	0.935259094345498	-0.47957364037818817	0.0
